<?xml version="1.0" encoding="utf-8"?>
<!-- Generator: Adobe Illustrator 23.0.2, SVG Export Plug-In . SVG Version: 6.00 Build 0)  -->
<svg version="1.1" id="Layer_1" xmlns="http://www.w3.org/2000/svg" xmlns:xlink="http://www.w3.org/1999/xlink" x="0px" y="0px"
	 viewBox="-696.8 49 857.8 545.6" style="enable-background:new -696.8 49 857.8 545.6;" xml:space="preserve">
<style type="text/css">
	.st0{fill:#FFFFFF;}
	.st1{fill:#A6A6A6;}
	.st2{filter:url(#Adobe_OpacityMaskFilter);}
	.st3{filter:url(#Adobe_OpacityMaskFilter_1_);}
	.st4{mask:url(#SVGID_1_);fill:url(#SVGID_2_);}
	.st5{fill:url(#SVGID_3_);}
	.st6{fill:#FFFFFF;stroke:#FFFFFF;stroke-width:0.16;stroke-miterlimit:10;}
	.st7{fill:url(#path64_1_);}
	.st8{fill:url(#path78_1_);}
	.st9{fill:url(#path88_1_);}
	.st10{fill:url(#path104_1_);}
</style>
<g>
	<g>
		<path class="st0" d="M141.4,415.7c0,13-10.5,23.6-23.6,23.6h-771.5c-13,0-23.6-10.5-23.6-23.6V227.9c0-13,10.6-23.6,23.6-23.6
			h771.5c13,0,23.6,10.6,23.6,23.6L141.4,415.7L141.4,415.7z"/>
		<path class="st1" d="M117.9,444.7h-771.5c-16,0-29.1-13-29.1-29V227.9c0-16,13-29.1,29.1-29.1h771.5c16,0,29.1,13,29.1,29.1v187.8
			C146.9,431.7,133.9,444.7,117.9,444.7L117.9,444.7z"/>
		<path d="M141.4,415.7c0,13-10.5,23.6-23.6,23.6h-771.5c-13,0-23.6-10.5-23.6-23.6V227.9c0-13,10.6-23.6,23.6-23.6h771.5
			c13,0,23.6,10.6,23.6,23.6L141.4,415.7L141.4,415.7z"/>
		<path class="st0" d="M-497.5,320.5c-0.2-19.8,16.2-29.5,17-29.9c-9.3-13.5-23.7-15.4-28.8-15.5c-12.1-1.3-23.8,7.2-30,7.2
			c-6.3,0-15.8-7.1-26-6.9c-13.2,0.2-25.5,7.8-32.2,19.7c-13.9,24.1-3.5,59.6,9.8,79.1c6.7,9.6,14.5,20.2,24.7,19.8
			c10-0.4,13.7-6.4,25.8-6.4c11.9,0,15.5,6.4,25.9,6.1c10.7-0.2,17.5-9.6,23.9-19.2c7.7-10.9,10.8-21.7,10.9-22.3
			C-476.7,352.1-497.3,344.2-497.5,320.5z"/>
		<path class="st0" d="M-517.2,262.2c5.4-6.7,9.1-15.9,8-25.1c-7.8,0.3-17.5,5.4-23.1,12c-5,5.8-9.4,15.3-8.2,24.2
			C-531.7,273.9-522.8,268.8-517.2,262.2z"/>
		<defs>
			<filter id="Adobe_OpacityMaskFilter" filterUnits="userSpaceOnUse" x="-295.4" y="198.8" width="442.3" height="245.9">
				<feFlood  style="flood-color:white;flood-opacity:1" result="back"/>
				<feBlend  in="SourceGraphic" in2="back" mode="normal"/>
			</filter>
		</defs>
		<mask maskUnits="userSpaceOnUse" x="-295.4" y="198.8" width="442.3" height="245.9" id="SVGID_1_">
			<g class="st2">
				<defs>
					<filter id="Adobe_OpacityMaskFilter_1_" filterUnits="userSpaceOnUse" x="-295.4" y="198.8" width="442.3" height="245.9">
						<feFlood  style="flood-color:white;flood-opacity:1" result="back"/>
						<feBlend  in="SourceGraphic" in2="back" mode="normal"/>
					</filter>
				</defs>
				<mask maskUnits="userSpaceOnUse" x="-295.4" y="198.8" width="442.3" height="245.9" id="SVGID_1_">
				</mask>
				
					<linearGradient id="SVGID_2_" gradientUnits="userSpaceOnUse" x1="-74.2268" y1="1204.4033" x2="-74.2268" y2="982.7547" gradientTransform="matrix(1 0 0 1 0 -759)">
					<stop  offset="0" style="stop-color:#1A1A1A"/>
					<stop  offset="0.1235" style="stop-color:#262626"/>
					<stop  offset="0.3085" style="stop-color:#3A3A3A"/>
					<stop  offset="0.5321" style="stop-color:#515151"/>
					<stop  offset="0.7834" style="stop-color:#6B6B6B"/>
					<stop  offset="1" style="stop-color:#828282"/>
				</linearGradient>
				<path class="st4" d="M117.9,198.8h-413.2l161.9,245.9h251.4c16,0,29.1-13,29.1-29V227.9C146.9,211.9,133.9,198.8,117.9,198.8z"
					/>
			</g>
		</mask>
		
			<linearGradient id="SVGID_3_" gradientUnits="userSpaceOnUse" x1="-74.2268" y1="1204.4033" x2="-74.2268" y2="982.7547" gradientTransform="matrix(1 0 0 1 0 -759)">
			<stop  offset="0" style="stop-color:#1A1A1A"/>
			<stop  offset="0.1235" style="stop-color:#212121"/>
			<stop  offset="0.3085" style="stop-color:#353535"/>
			<stop  offset="0.5321" style="stop-color:#575757"/>
			<stop  offset="0.7834" style="stop-color:#858585"/>
			<stop  offset="1" style="stop-color:#B3B3B3"/>
		</linearGradient>
		<path class="st5" d="M117.9,198.8h-413.2l161.9,245.9h251.4c16,0,29.1-13,29.1-29V227.9C146.9,211.9,133.9,198.8,117.9,198.8z"/>
		<g>
			<path class="st0" d="M-352.7,392.6h-14l-7.6-24H-401l-7.3,24h-13.6l26.3-81.8h16.3L-352.7,392.6z M-376.7,358.4l-6.9-21.4
				c-0.7-2.2-2.1-7.3-4.1-15.4h-0.2c-0.8,3.5-2.1,8.6-3.9,15.4l-6.8,21.4H-376.7z"/>
			<path class="st0" d="M-285.1,362.3c0,10-2.7,18-8.2,23.8c-4.9,5.2-11,7.8-18.2,7.8c-7.8,0-13.4-2.8-16.8-8.4v31h-13.1V353
				c0-6.3-0.2-12.8-0.5-19.4h11.5l0.7,9.4h0.2c4.4-7,11-10.6,19.9-10.6c7,0,12.8,2.7,17.4,8.3C-287.5,346.1-285.1,353.4-285.1,362.3
				z M-298.5,362.8c0-5.7-1.3-10.5-3.9-14.2c-2.8-3.9-6.6-5.8-11.4-5.8c-3.2,0-6.2,1.1-8.8,3.2c-2.6,2.2-4.4,5-5.2,8.4
				c-0.4,1.6-0.6,2.9-0.6,4v9.8c0,4.3,1.3,7.9,3.9,10.9c2.6,3,6.1,4.4,10.3,4.4c4.9,0,8.8-1.9,11.5-5.7
				C-299.9,374.1-298.5,369-298.5,362.8z"/>
			<path class="st0" d="M-217.3,362.3c0,10-2.7,18-8.2,23.8c-4.9,5.2-11,7.8-18.2,7.8c-7.8,0-13.4-2.8-16.8-8.4v31h-13.1V353
				c0-6.3-0.2-12.8-0.5-19.4h11.5l0.7,9.4h0.2c4.4-7,11-10.6,19.9-10.6c7,0,12.8,2.7,17.4,8.3C-219.6,346.1-217.3,353.4-217.3,362.3
				z M-230.6,362.8c0-5.7-1.3-10.5-3.9-14.2c-2.8-3.9-6.6-5.8-11.4-5.8c-3.2,0-6.2,1.1-8.8,3.2c-2.6,2.2-4.3,5-5.2,8.4
				c-0.4,1.6-0.6,2.9-0.6,4v9.8c0,4.3,1.3,7.9,3.9,10.9c2.6,2.9,6.1,4.4,10.3,4.4c4.9,0,8.8-1.9,11.5-5.7
				C-232,374.1-230.6,369-230.6,362.8z"/>
			<path class="st0" d="M-141.4,369.6c0,7-2.4,12.6-7.3,17c-5.3,4.8-12.8,7.2-22.3,7.2c-8.8,0-15.9-1.7-21.2-5.1l3-10.9
				c5.7,3.4,12.1,5.1,18.9,5.1c4.9,0,8.8-1.1,11.5-3.3c2.7-2.2,4.1-5.2,4.1-8.9c0-3.3-1.1-6.1-3.4-8.4c-2.3-2.3-6-4.4-11.3-6.3
				c-14.3-5.3-21.5-13.2-21.5-23.4c0-6.7,2.5-12.2,7.6-16.5c5.1-4.3,11.8-6.4,20.1-6.4c7.4,0,13.7,1.3,18.6,3.9l-3.3,10.7
				c-4.6-2.5-9.9-3.8-15.7-3.8c-4.6,0-8.3,1.1-10.8,3.4c-2.2,2-3.3,4.5-3.3,7.4c0,3.2,1.3,5.9,3.8,8c2.2,1.9,6.1,4,11.9,6.3
				c7,2.8,12.2,6.1,15.5,9.9C-143,359.2-141.4,364-141.4,369.6z"/>
			<path class="st0" d="M-97.9,343.4h-14.5V372c0,7.3,2.5,10.9,7.6,10.9c2.3,0,4.3-0.2,5.8-0.6l0.4,10c-2.6,1-6,1.5-10.2,1.5
				c-5.2,0-9.2-1.6-12.1-4.7c-2.9-3.2-4.4-8.5-4.4-15.9v-29.7h-8.6v-9.8h8.6v-10.8l12.9-3.9v14.7h14.5V343.4z"/>
			<path class="st0" d="M-32.8,362.6c0,9.1-2.6,16.5-7.8,22.3c-5.4,6-12.6,9-21.6,9c-8.7,0-15.6-2.9-20.7-8.6
				c-5.1-5.7-7.7-13-7.7-21.7c0-9.1,2.7-16.6,8-22.5c5.3-5.8,12.5-8.7,21.4-8.7c8.7,0,15.6,2.9,20.9,8.6
				C-35.4,346.5-32.8,353.7-32.8,362.6z M-46.4,362.9c0-5.4-1.2-10-3.5-13.9c-2.7-4.7-6.7-7-11.8-7c-5.3,0-9.3,2.3-12,7
				c-2.3,3.9-3.5,8.6-3.5,14.2c0,5.4,1.2,10.1,3.5,13.9c2.8,4.7,6.8,7,11.9,7c5,0,8.9-2.4,11.8-7.1C-47.7,373-46.4,368.3-46.4,362.9
				z"/>
			<path class="st0" d="M9.8,345.1c-1.3-0.2-2.7-0.4-4.1-0.4c-4.6,0-8.2,1.7-10.7,5.2c-2.2,3.1-3.3,7-3.3,11.7v31h-13.1v-40.4
				c0-6.8-0.1-13-0.4-18.6h11.4l0.5,11.3h0.4c1.4-3.9,3.6-7,6.6-9.4c2.9-2.1,6.1-3.2,9.5-3.2c1.2,0,2.3,0.1,3.3,0.2L9.8,345.1
				L9.8,345.1z"/>
			<path class="st0" d="M68.4,360.3c0,2.3-0.2,4.3-0.5,5.9H28.6c0.1,5.8,2.1,10.3,5.7,13.4c3.3,2.7,7.6,4.1,12.9,4.1
				c5.8,0,11.1-0.9,15.9-2.8l2.1,9.1c-5.6,2.4-12.2,3.6-19.8,3.6c-9.1,0-16.3-2.7-21.6-8.1c-5.2-5.4-7.8-12.6-7.8-21.7
				c0-8.9,2.4-16.3,7.3-22.2c5.1-6.3,12-9.5,20.6-9.5c8.5,0,14.9,3.2,19.3,9.5C66.7,346.7,68.4,352.9,68.4,360.3z M55.9,356.9
				c0.1-3.9-0.8-7.2-2.5-10.1c-2.3-3.7-5.8-5.5-10.4-5.5c-4.3,0-7.8,1.8-10.4,5.3c-2.2,2.8-3.5,6.2-3.9,10.2L55.9,356.9L55.9,356.9z
				"/>
		</g>
		<g>
			<path class="st0" d="M-383,281.4h-6.9l-3.8-11.8h-13.1l-3.6,11.8h-6.7l12.9-40.2h8L-383,281.4z M-394.7,264.7l-3.4-10.5
				c-0.4-1.1-1-3.6-2-7.6h-0.1c-0.4,1.7-1,4.2-1.9,7.6l-3.3,10.5H-394.7z"/>
			<path class="st0" d="M-350.6,252.4l-11,29h-6.3l-10.6-29h6.9l5,15.3c0.8,2.6,1.5,5,2.1,7.3h0.2c0.5-2.1,1.2-4.5,2.1-7.3l4.9-15.3
				H-350.6z"/>
			<path class="st0" d="M-327.2,281.4l-0.5-3.3h-0.2c-2,2.7-4.8,4-8.5,4c-5.2,0-8.9-3.6-8.9-8.5c0-7.2,6.2-10.9,16.9-10.9v-0.5
				c0-3.8-2-5.7-6-5.7c-2.9,0-5.4,0.7-7.6,2.2l-1.3-4.2c2.7-1.7,6-2.5,10-2.5c7.6,0,11.4,4,11.4,12v10.7c0,2.9,0.1,5.2,0.4,6.9
				L-327.2,281.4L-327.2,281.4z M-328.1,267c-7.2,0-10.7,1.7-10.7,5.8c0,3,1.9,4.5,4.4,4.5c3.3,0,6.3-2.5,6.3-5.9L-328.1,267z"/>
			<path class="st0" d="M-307.5,247.7c-2.1,0-3.8-1.7-3.8-3.9s1.7-3.8,3.9-3.8c2.2,0,4,1.6,3.9,3.8
				C-303.4,246.1-305.1,247.7-307.5,247.7z M-304.2,281.4h-6.4v-29h6.4V281.4z"/>
			<path class="st0" d="M-286.3,281.4h-6.4v-42.3h6.4V281.4z"/>
			<path class="st0" d="M-258.9,281.4l-0.5-3.3h-0.2c-2,2.7-4.8,4-8.5,4c-5.2,0-8.9-3.6-8.9-8.5c0-7.2,6.2-10.9,16.9-10.9v-0.5
				c0-3.8-2-5.7-6-5.7c-2.9,0-5.4,0.7-7.6,2.2l-1.3-4.2c2.7-1.7,6-2.5,10-2.5c7.6,0,11.4,4,11.4,12v10.7c0,2.9,0.1,5.2,0.4,6.9
				H-258.9z M-259.8,267c-7.2,0-10.7,1.7-10.7,5.8c0,3,1.9,4.5,4.4,4.5c3.3,0,6.3-2.5,6.3-5.9V267z"/>
			<path class="st0" d="M-227.4,282.1c-4.1,0-7.2-1.7-9.1-5.1h-0.1l-0.4,4.5h-5.5c0.2-2.3,0.2-5,0.2-7.8v-34.5h6.5v17.5h0.1
				c1.9-3.2,5-4.8,9.2-4.8c7,0,11.9,6,11.9,14.7C-214.6,275.5-220,282.1-227.4,282.1z M-228.7,256.9c-3.7,0-7.1,3.2-7.1,7.7v5.1
				c0,4,3.1,7.3,7,7.3c4.8,0,7.7-3.9,7.7-10.2C-221.1,260.9-224.1,256.9-228.7,256.9z"/>
			<path class="st0" d="M-198.6,281.4h-6.4v-42.3h6.4V281.4z"/>
			<path class="st0" d="M-163.5,268.5h-19.3c0.1,5.5,3.8,8.6,9.1,8.6c2.9,0,5.5-0.5,7.8-1.4l1,4.5c-2.7,1.2-6,1.8-9.7,1.8
				c-9.1,0-14.4-5.7-14.4-14.6c0-8.9,5.5-15.6,13.7-15.6c7.4,0,12.1,5.5,12.1,13.8C-163.3,266.7-163.3,267.7-163.5,268.5z
				 M-169.4,263.9c0-4.5-2.3-7.6-6.4-7.6c-3.7,0-6.6,3.2-7,7.6H-169.4z"/>
			<path class="st0" d="M-124.4,282.1c-8.5,0-14-6.3-14-14.9c0-9,5.6-15.3,14.5-15.3c8.3,0,14,6,14,14.9
				C-110,275.8-115.8,282.1-124.4,282.1z M-124.2,256.6c-4.7,0-7.6,4.4-7.6,10.4c0,6,3,10.3,7.6,10.3c4.5,0,7.6-4.7,7.6-10.4
				C-116.7,261-119.7,256.6-124.2,256.6z"/>
			<path class="st0" d="M-75.4,281.4h-6.4v-16.7c0-5.1-2-7.7-5.8-7.7c-3.8,0-6.5,3.3-6.5,7.1v17.2h-6.4v-20.7c0-2.6-0.1-5.3-0.2-8.3
				h5.7l0.3,4.5h0.2c1.7-3.1,5.3-5.1,9.2-5.1c6.1,0,10.1,4.7,10.1,12.2L-75.4,281.4L-75.4,281.4z"/>
			<path class="st0" d="M-33.2,257.3h-7.1v14.1c0,3.6,1.2,5.4,3.8,5.4c1.1,0,2.1-0.1,2.9-0.3l0.2,4.9c-1.3,0.5-2.9,0.7-5,0.7
				c-5.1,0-8.1-2.8-8.1-10.1v-14.6h-4.2v-4.8h4.2v-5.3l6.3-1.9v7.2h7.1V257.3z"/>
			<path class="st0" d="M0.9,281.4h-6.5v-16.5c0-5.2-2-7.8-5.8-7.8c-3.3,0-6.4,2.3-6.4,6.9v17.5h-6.5v-42.3h6.5v17.4h0.1
				c2-3.2,5-4.7,8.7-4.7c6.1,0,9.9,4.8,9.9,12.4V281.4z"/>
			<path class="st0" d="M33.9,268.5H14.5c0.1,5.5,3.8,8.6,9.1,8.6c2.9,0,5.5-0.5,7.8-1.4l1,4.5c-2.7,1.2-6,1.8-9.7,1.8
				c-9.1,0-14.4-5.7-14.4-14.6c0-8.9,5.5-15.6,13.7-15.6c7.4,0,12.1,5.5,12.1,13.8C34.1,266.7,34,267.7,33.9,268.5z M28,263.9
				c0-4.5-2.3-7.6-6.4-7.6c-3.7,0-6.6,3.2-7,7.6H28z"/>
		</g>
	</g>
</g>
</svg>
