<?xml version="1.0" encoding="utf-8"?>
<!-- Generator: Adobe Illustrator 23.0.2, SVG Export Plug-In . SVG Version: 6.00 Build 0)  -->
<svg version="1.1" id="Layer_1" xmlns="http://www.w3.org/2000/svg" xmlns:xlink="http://www.w3.org/1999/xlink" x="0px" y="0px"
	 viewBox="181 49 857.8 545.6" style="enable-background:new 181 49 857.8 545.6;" xml:space="preserve">
<style type="text/css">
	.st0{fill:#FFFFFF;}
	.st1{fill:#A6A6A6;}
	.st2{filter:url(#Adobe_OpacityMaskFilter);}
	.st3{filter:url(#Adobe_OpacityMaskFilter_1_);}
	.st4{mask:url(#SVGID_1_);fill:url(#SVGID_2_);}
	.st5{fill:url(#SVGID_3_);}
	.st6{fill:#FFFFFF;stroke:#FFFFFF;stroke-width:0.16;stroke-miterlimit:10;}
	.st7{fill:url(#path64_1_);}
	.st8{fill:url(#path78_1_);}
	.st9{fill:url(#path88_1_);}
	.st10{fill:url(#path104_1_);}
</style>
<g id="g10" transform="matrix(1.25,0,0,-1.25,-9.4247625,49.85025)">
	<g id="g12" transform="matrix(1.0023923,0,0,0.99072975,-0.29664807,0)">
		<path id="path14" d="M801.9-317.6H188.8c-13.5,0-24.5,11-24.5,24.5v147.1c0,13.5,11,24.5,24.5,24.5h613.1
			c13.5,0,24.5-11,24.5-24.5v-147.1C826.4-306.5,815.4-317.6,801.9-317.6z"/>
		<path id="path16" class="st1" d="M801.9-125.3c11.4,0,20.6-9.2,20.6-20.6v-147.1c0-11.4-9.2-20.6-20.6-20.6H188.8
			c-11.4,0-20.6,9.2-20.6,20.6v147.1c0,11.4,9.2,20.6,20.6,20.6H801.9 M801.9-121.4H188.8c-13.5,0-24.5-11-24.5-24.5v-147.1
			c0-13.5,11-24.5,24.5-24.5h613.1c13.5,0,24.5,11,24.5,24.5v147.1C826.4-132.4,815.4-121.4,801.9-121.4z"/>
		<g id="g18" transform="matrix(1,0,0,-1,0,48)">
			<path id="path20" class="st6" d="M396.9,219.6c0,4.1-1.2,7.4-3.6,9.8c-2.8,2.9-6.4,4.4-10.8,4.4c-4.2,0-7.9-1.5-10.8-4.4
				c-3-3-4.5-6.6-4.5-11c0-4.4,1.5-8,4.5-10.9c3-2.9,6.6-4.4,10.8-4.4c2.1,0,4.1,0.4,6,1.2c1.9,0.8,3.5,1.9,4.6,3.3l-2.6,2.6
				c-2-2.3-4.6-3.5-8.1-3.5c-3.1,0-5.8,1.1-8,3.3c-2.3,2.2-3.4,5-3.4,8.5s1.1,6.3,3.4,8.5c2.3,2.2,5,3.3,8,3.3c3.3,0,6-1.1,8.2-3.3
				c1.4-1.4,2.3-3.4,2.5-6h-10.7v-3.5h14.2C396.8,218.2,396.9,218.9,396.9,219.6z"/>
		</g>
		<g id="g22" transform="matrix(1,0,0,-1,0,48)">
			<path id="path24" class="st6" d="M419.5,207.4h-13.4v9.3h12.1v3.5h-12.1v9.3h13.4v3.6h-17.2v-29.4h17.2V207.4z"/>
		</g>
		<g id="g26" transform="matrix(1,0,0,-1,0,48)">
			<path id="path28" class="st6" d="M435.4,233.1h-3.8v-25.8h-8.2v-3.6h20.2v3.6h-8.2V233.1z"/>
		</g>
		<g id="g30" transform="matrix(1,0,0,-1,0,48)">
			<path id="path32" class="st6" d="M458.3,233.1v-29.4h3.8v29.4H458.3z"/>
		</g>
		<g id="g34" transform="matrix(1,0,0,-1,0,48)">
			<path id="path36" class="st6" d="M478.8,233.1h-3.8v-25.8h-8.2v-3.6h20.2v3.6h-8.2V233.1z"/>
		</g>
		<g id="g38" transform="matrix(1,0,0,-1,0,48)">
			<path id="path40" class="st6" d="M525.3,229.4c-2.9,3-6.5,4.5-10.8,4.5c-4.3,0-7.9-1.5-10.8-4.5c-2.9-3-4.3-6.6-4.3-10.9
				c0-4.3,1.4-8,4.3-10.9c2.9-3,6.5-4.5,10.8-4.5c4.3,0,7.9,1.5,10.8,4.5c2.9,3,4.4,6.6,4.4,10.9
				C529.7,222.8,528.2,226.4,525.3,229.4z M506.6,226.9c2.2,2.2,4.8,3.3,8,3.3c3.1,0,5.8-1.1,8-3.3c2.2-2.2,3.3-5,3.3-8.5
				c0-3.4-1.1-6.3-3.3-8.5c-2.2-2.2-4.8-3.3-8-3.3c-3.2,0-5.8,1.1-8,3.3c-2.2,2.2-3.3,5-3.3,8.5
				C503.3,221.9,504.4,224.7,506.6,226.9z"/>
		</g>
		<g id="g42" transform="matrix(1,0,0,-1,0,48)">
			<path id="path44" class="st6" d="M535,233.1v-29.4h4.6l14.3,22.9h0.2l-0.2-5.7v-17.2h3.8v29.4h-3.9l-15-24h-0.2l0.2,5.7v18.3
				L535,233.1z"/>
		</g>
		<path id="path46" class="st0" d="M498.5-228.1c-11.5,0-20.9-8.8-20.9-20.9c0-12,9.4-20.9,20.9-20.9c11.5,0,21,8.9,21,20.9
			C519.4-236.9,510-228.1,498.5-228.1z M498.5-261.6c-6.3,0-11.8,5.2-11.8,12.6c0,7.5,5.4,12.6,11.8,12.6c6.3,0,11.8-5.1,11.8-12.6
			C510.3-256.4,504.8-261.6,498.5-261.6z M452.8-228.1c-11.5,0-20.9-8.8-20.9-20.9c0-12,9.4-20.9,20.9-20.9
			c11.5,0,20.9,8.9,20.9,20.9C473.7-236.9,464.4-228.1,452.8-228.1z M452.8-261.6c-6.3,0-11.8,5.2-11.8,12.6
			c0,7.5,5.5,12.6,11.8,12.6c6.3,0,11.8-5.1,11.8-12.6C464.6-256.4,459.1-261.6,452.8-261.6z M398.5-234.5v-8.9h21.2
			c-0.6-5-2.3-8.6-4.8-11.1c-3.1-3.1-7.9-6.5-16.4-6.5c-13,0-23.2,10.5-23.2,23.5c0,13,10.2,23.5,23.2,23.5c7,0,12.2-2.8,16-6.3
			l6.2,6.2c-5.3,5.1-12.3,8.9-22.2,8.9c-17.9,0-32.9-14.5-32.9-32.4s15-32.4,32.9-32.4c9.7,0,16.9,3.2,22.6,9.1
			c5.8,5.8,7.7,14.1,7.7,20.7c0,2.1-0.2,4-0.5,5.5H398.5z M620.7-241.4c-1.7,4.7-7,13.3-17.9,13.3c-10.7,0-19.7-8.5-19.7-20.9
			c0-11.7,8.8-20.9,20.7-20.9c9.6,0,15.1,5.8,17.4,9.2l-7.1,4.7c-2.4-3.5-5.6-5.8-10.3-5.8c-4.6,0-8,2.1-10.1,6.3l27.9,11.5
			L620.7-241.4z M592.2-248.3c-0.2,8,6.2,12.2,10.9,12.2c3.6,0,6.7-1.8,7.8-4.4L592.2-248.3z M569.6-268.5h9.2v61.3h-9.2V-268.5z
			 M554.5-232.7h-0.3c-2.1,2.4-6,4.6-11,4.6c-10.4,0-20-9.2-20-20.9c0-11.7,9.6-20.8,20-20.8c5,0,8.9,2.2,11,4.7h0.3v-3
			c0-8-4.3-12.3-11.1-12.3c-5.6,0-9.1,4-10.5,7.4l-8-3.3c2.3-5.5,8.4-12.3,18.5-12.3c10.8,0,19.8,6.3,19.8,21.7v37.5h-8.7V-232.7z
			 M544.1-261.6c-6.3,0-11.6,5.3-11.6,12.6c0,7.4,5.3,12.7,11.6,12.7c6.2,0,11.1-5.4,11.1-12.7C555.2-256.3,550.3-261.6,544.1-261.6
			z M663.6-207.2h-21.9v-61.3h9.1v23.2h12.8c10.2,0,20.1,7.4,20.1,19C683.8-214.6,673.8-207.2,663.6-207.2z M663.9-236.8h-13v21h13
			c6.8,0,10.7-5.7,10.7-10.5C674.6-231,670.7-236.8,663.9-236.8z M720.4-228c-6.6,0-13.5-2.9-16.3-9.4l8.1-3.4
			c1.7,3.4,5,4.5,8.4,4.5c4.7,0,9.6-2.9,9.6-7.9v-0.6c-1.7,1-5.2,2.4-9.6,2.4c-8.7,0-17.7-4.8-17.7-13.8c0-8.2,7.2-13.5,15.2-13.5
			c6.2,0,9.6,2.8,11.7,6h0.3v-4.7h8.8v23.5C739.1-234.1,730.9-228,720.4-228z M719.3-261.6c-3,0-7.2,1.5-7.2,5.2
			c0,4.7,5.2,6.6,9.7,6.6c4,0,5.9-0.9,8.4-2.1C729.5-257.5,724.6-261.6,719.3-261.6z M771.2-229.3l-10.5-26.6h-0.3l-10.9,26.6h-9.9
			l16.3-37.1l-9.3-20.7h9.6l25.2,57.8H771.2z M688.8-268.5h9.2v61.3h-9.2V-268.5z"/>
		<g id="g48">
			
				<linearGradient id="path64_1_" gradientUnits="userSpaceOnUse" x1="277.0619" y1="-40.4363" x2="174.1672" y2="-143.3311" gradientTransform="matrix(1.0024 0 0 -0.9907 -6.5115 -314.9337)">
				<stop  offset="0" style="stop-color:#00A0FF"/>
				<stop  offset="6.600000e-03" style="stop-color:#00A1FF"/>
				<stop  offset="0.2601" style="stop-color:#00BEFF"/>
				<stop  offset="0.5122" style="stop-color:#00D2FF"/>
				<stop  offset="0.7604" style="stop-color:#00DFFF"/>
				<stop  offset="1" style="stop-color:#00E3FF"/>
			</linearGradient>
			<path id="path64" class="st7" d="M215.5-158.4c-1.4-1.5-2.3-3.9-2.3-6.9v-108.5c0-3,0.8-5.4,2.3-6.9l0.4-0.3l60.8,60.8v1.4
				L215.8-158L215.5-158.4z"/>
		</g>
		<g id="g66">
			
				<linearGradient id="path78_1_" gradientUnits="userSpaceOnUse" x1="335.9535" y1="-96.3368" x2="187.6026" y2="-96.3368" gradientTransform="matrix(1.0024 0 0 -0.9907 -6.5115 -314.9337)">
				<stop  offset="0" style="stop-color:#FFE000"/>
				<stop  offset="0.4087" style="stop-color:#FFBD00"/>
				<stop  offset="0.7754" style="stop-color:#FFA500"/>
				<stop  offset="1" style="stop-color:#FF9C00"/>
			</linearGradient>
			<path id="path78" class="st8" d="M296.9-240.5l-20.2,20.3v1.4l20.3,20.3l0.5-0.3l24-13.7c6.8-3.9,6.8-10.3,0-14.2l-24-13.6
				L296.9-240.5z"/>
		</g>
		<g id="g80">
			
				<linearGradient id="path88_1_" gradientUnits="userSpaceOnUse" x1="251.0486" y1="-66.3924" x2="111.5152" y2="-205.9258" gradientTransform="matrix(1.0024 0 0 -0.9907 -6.5115 -314.9337)">
				<stop  offset="0" style="stop-color:#FF3A44"/>
				<stop  offset="1" style="stop-color:#C31162"/>
			</linearGradient>
			<path id="path88" class="st9" d="M297.3-240.2l-20.7,20.7l-61.1-61.1c2.3-2.4,6-2.7,10.2-0.3L297.3-240.2"/>
		</g>
		<g id="g90">
			
				<linearGradient id="path104_1_" gradientUnits="userSpaceOnUse" x1="165.289" y1="-39.5007" x2="227.5937" y2="-101.8047" gradientTransform="matrix(1.0024 0 0 -0.9907 -6.5115 -314.9337)">
				<stop  offset="0" style="stop-color:#32A071"/>
				<stop  offset="6.850000e-02" style="stop-color:#2DA771"/>
				<stop  offset="0.4762" style="stop-color:#15CF74"/>
				<stop  offset="0.8009" style="stop-color:#06E775"/>
				<stop  offset="1" style="stop-color:#00F076"/>
			</linearGradient>
			<path id="path104" class="st10" d="M297.3-198.8l-71.7,40.7c-4.2,2.4-7.9,2.1-10.2-0.3l61.1-61.1L297.3-198.8z"/>
		</g>
	</g>
</g>
</svg>
