<svg xmlns="http://www.w3.org/2000/svg" width="100" height="100"><path fill="#CFD0D0" d="M77.416 26.413c-.021-.657-.214-4.538-2.01-9.053a27.311 27.311 0 00-1.549-3.254c-2.039-3.624-4.819-6.512-8.263-8.582-4.245-2.552-9.481-3.836-15.562-3.813-6.071.022-11.299 1.31-15.541 3.827-3.443 2.045-6.227 4.882-8.271 8.437-.403.701-.76 1.401-1.077 2.091a25.65 25.65 0 00-.606 1.426c-1.7 4.333-1.878 7.997-1.895 8.57-.233 3.053.296 6.11 1.048 8.739.138.484.285.955.435 1.408a38.346 38.346 0 001.974 4.809c.366.74.632 1.209.704 1.333 5.593 10.177 7.534 22.789 7.549 22.908.054.428.109 2.691.148 4.396l.01.41.023.951.01.466c.053 2.099 1.004 3.684 1.667 4.54l.002.182.002.923a.984.984 0 00.914.979l.024.181c.04.306.158.873.496 1.394-.73.986-.59 2.212-.023 3.063a3.25 3.25 0 00-.249.772c-.181.919-.03 1.66.459 2.25a2.442 2.442 0 00-.312 2.162c.114.356.292.652.456.899-.542.989-.401 2.297.441 3.488 1.259 2.112 3.234 2.698 4.433 2.854l1.852 1.98.319.342.439.161c1.49.555 3.169.83 4.989.825 2.599-.01 4.622-.604 4.707-.631l.561-.168.38-.447 1.693-1.987c1.055-.232 2.334-.769 2.927-1.212.663-.498 1.79-1.511 1.884-2.723a2.715 2.715 0 00-.043-.716c.169-.186.329-.42.448-.718.423-1.049.242-1.925-.182-2.561a2.55 2.55 0 00.518-1.678 2.772 2.772 0 00-.437-1.36c.183-.262.309-.563.375-.883.183-.913-.194-1.686-.438-2.069l.351-.176-.076-1.189-.007-1.872a1.281 1.281 0 001.278-1.288l-.002-.697-.001-.309c.233-.397.524-.964.908-1.792.338-.729.569-1.852.728-3.068.059-.45.107-.914.148-1.374.153-1.766.188-3.498.192-4.353 1.332-12.203 4.94-19.526 7.552-24.459.155-.294.308-.579.456-.855l.22-.415.438-.829c.471-.898.853-1.809 1.161-2.707.165-.477.311-.949.437-1.415 1.089-4.01.844-7.493.788-8.113zM39.453 80.378c.258-.269.599-.322.782-.594l20.126 1.525c.19.484.643.621.643.621s.448.629.003.905a5.58 5.58 0 00-.295.197l-20.88-1.585a2.223 2.223 0 00-.375-.164s-.4-.494-.004-.905zm.772-1.432c.069.082.116.146.127.159-.012-.014-.059-.077-.127-.159zm.128.162zM60.49 90.624c-.023.305-.6.91-1.08 1.27-.452.339-1.984.921-2.606.922a.577.577 0 01-.106-.007l-2.163 2.542s-1.781.533-4.093.54c-1.317.006-2.806-.16-4.235-.691l-2.364-2.525s-.041.004-.118.004c-.496.002-2.441-.114-3.511-1.982 0 0-.833-1.12-.187-1.628.117-.092.201-.181.261-.268l20.163 1.529a.893.893 0 01.039.294zm.537-1.996c-.092.227-.337.265-.518.396l-20.592-1.562c-.303-.446-.563-.789-.262-1.109.187-.199.447-.322.577-.561l20.197 1.53c.099.16.241.283.414.4.355.247.324.557.184.906zm-.01-2.897c-.146.112-.299.188-.427.295l-20.633-1.563c-.322-.409-.641-.249-.492-1.008.097-.494.338-.604.546-.684l20.457 1.552c.051.049.11.097.184.142.663.411.688 1.02.365 1.266zm2.308-12.861c-.846 1.824-1.51 2.921-1.938 3.19a.921.921 0 00-.427.798l.034 2.719s-.256.142-.462.439l-20.82-1.578a.798.798 0 00-.087-.05c-.286-.131-.336-.402-.364-.724a14.776 14.776 0 01-.011-.896.71.71 0 00-.298-.588c-.354-.242-2.169-2.705-2.248-4.983 4.431.336 9.037.502 13.735.483a174.09 174.09 0 0013.333-.55c-.114.716-.261 1.334-.447 1.74z"/></svg>